<?xml version="1.0" encoding="UTF-8"?>
<svg id="Layer_1" xmlns="http://www.w3.org/2000/svg" version="1.1" viewBox="0 0 98.3 98.8">
  <!-- Generator: Adobe Illustrator 29.2.1, SVG Export Plug-In . SVG Version: 2.1.0 Build 116)  -->
  <defs>
    <style>
      .st0 {
        fill: #fff;
      }
    </style>
  </defs>
  <rect x=".8" y=".6" width="96.8" height="96.8" rx="7.7" ry="7.7"/>
  <path class="st0" d="M93.4,4.5c-1.9,2.9-4.3,6.3-5.1,9.9s-.3,2.6-.5,3.8c-1.3,6.5-5.7,12.3-9.9,17-.2.2-.4.6-.7.2,2.3-3.9,4.5-9.2,2.9-14.3-1,1.3-2.5,2.3-3.4,3.6-2.8,3.9-6.4,11.9-6.7,17s1,7.9,4.9,7.8,5.7-2.8,7.7-4,.1-.2.4,0l-4.2,6.6c-1.7,4,3,9.3,7.2,9.8-2.5.8-5.1,1.6-7.4,3-5.3,3.2-5.8,5.2-6.4,11.5s-.2,5.5.1,8.3c-2.5-4.4-4-10-7.3-14-3.6-4.3-8.3-5.5-10.3-.5s-1.6,5.8-2.6,8.5,0,.5-.3.4l-1.5-9.3c.6-8.1,1.8-15.9,4.2-23.4l1-2.5c-2.4,3.1-6.5,5.6-7.6,9.7-.5,1.8-.8,4.5.5,6.3l-8.8,2.3-17.6,14.7-2.3,10.2-16.1,5.7-.3-.2,5.8-17,9.7-2c5.4-5.6,10.4-11.8,15.6-17.7,1-2.8,1.6-5.7,2.4-8.7,1.7,1.3,4.1,1.1,5.8.7,2.6-.5,4-1.8,5.9-3.4l4.3-4.1-4.2,1.5c-6.5,1.4-14.2,3.4-21.2,3.2s-6.4-1.5-9.3-1.9l3.7-.7c2.3-.9,5.9-1.3,7.4-3.4s.7-4.6-.7-6.5c-4.1-5-10.9-6.9-16.2-9.9,4.2.9,8.9.8,12.8,0s5.4-2.7,7.3-5.8,2.2-4.7,3.1-7.2c.2,0,.3,1.2.4,1.5,1.3,3.8,6,7.2,9.5,5.6l6.6-4c.2.2,0,.3-.1.5-1.9,3.4-8.1,9.5,0,12.2s10.1-.4,13.2-1.7,6.7-3.3,7.4-3.9l3.7-3.5c-3.2-1.1-6.6-.5-9.4.4-1.8.6-3.3,1.4-5,2.1,3-3,6.5-5.4,10.2-7.4s6.7-2.3,11.6-3.2,6.8-2.4,9.8-3.9h.1Z"/>
</svg>