<?xml version="1.0" encoding="UTF-8"?>
<svg id="Layer_1" xmlns="http://www.w3.org/2000/svg" version="1.1" viewBox="0 0 103.4 100.5">
  <!-- Generator: Adobe Illustrator 29.2.1, SVG Export Plug-In . SVG Version: 2.1.0 Build 116)  -->
  <path d="M76.4,7.3H26.4c-10.3,0-18.8,8.4-18.8,18.8v50c0,10.3,8.4,18.8,18.8,18.8h50c10.3,0,18.8-8.4,18.8-18.8V26c0-10.3-8.4-18.8-18.8-18.8ZM88.9,76c0,6.9-5.6,12.5-12.5,12.5H26.4c-6.9,0-12.5-5.6-12.5-12.5V26c0-6.9,5.6-12.5,12.5-12.5h50c6.9,0,12.5,5.6,12.5,12.5v50ZM51.4,26c-13.8,0-25,11.2-25,25s11.2,25,25,25,25-11.2,25-25-11.2-25-25-25ZM51.4,69.8c-10.3,0-18.8-8.4-18.8-18.8s8.4-18.8,18.8-18.8,18.8,8.4,18.8,18.8-8.4,18.8-18.8,18.8ZM78.7,23.8c.6.6.9,1.4.9,2.2s-.3,1.6-.9,2.2c-.6.6-1.4.9-2.2.9s-1.6-.3-2.2-.9c-.6-.6-.9-1.4-.9-2.2s.3-1.6.9-2.2c1.2-1.1,3.2-1.2,4.4,0h0Z"/>
</svg>