<?xml version="1.0" encoding="UTF-8"?>
<svg id="Layer_1" xmlns="http://www.w3.org/2000/svg" version="1.1" xmlns:cc="http://creativecommons.org/ns#" xmlns:dc="http://purl.org/dc/elements/1.1/" xmlns:inkscape="http://www.inkscape.org/namespaces/inkscape" xmlns:rdf="http://www.w3.org/1999/02/22-rdf-syntax-ns#" xmlns:sodipodi="http://sodipodi.sourceforge.net/DTD/sodipodi-0.dtd" xmlns:svg="http://www.w3.org/2000/svg" viewBox="0 0 100 75.4">
  <!-- Generator: Adobe Illustrator 29.2.1, SVG Export Plug-In . SVG Version: 2.1.0 Build 116)  -->
  <path d="M17,7.7c-5,0-9,4.2-9,9.2v41.5c0,5,4,9.2,9,9.2h66c5,0,9-4.2,9-9.2V17c0-5-4-9.2-9-9.2H17ZM17.4,13.7h65.2l-30.8,29.2c-1.1,1.1-2.4,1.1-3.5,0L17.4,13.7ZM14,18.7l20.4,19.4-20.4,20.4V18.7ZM86,18.7v39.8l-20.4-20.4,20.4-19.3ZM61.3,42.2l19.5,19.5H19.2l19.5-19.5,5.4,5.1c3.3,3.1,8.5,3.1,11.8,0,0,0,5.4-5.1,5.4-5.1Z"/>
</svg>